<svg xmlns="http://www.w3.org/2000/svg" viewBox="0 0 32 32" fill="none" role="img" aria-label="calara">
  <path d="M11 2.5c0-.8.7-1.5 1.5-1.5h1c.8 0 1.5.7 1.5 1.5V7h-4V2.5Z" fill="#0969da"/>
  <path d="M17 2.5c0-.8.7-1.5 1.5-1.5h1c.8 0 1.5.7 1.5 1.5V7h-4V2.5Z" fill="#0969da"/>
  <rect x="4" y="5.5" width="24" height="23" rx="4" stroke="#0b1220" stroke-width="2" fill="#ffffff"/>
  <path d="M4 11.5h24" stroke="#0b1220" stroke-width="2"/>
  <g stroke="#c8d1dc" stroke-width="0.9">
    <path d="M8 13.5v13"/><path d="M12 13.5v13"/><path d="M16 13.5v13"/><path d="M20 13.5v13"/><path d="M24 13.5v13"/>
    <path d="M5.5 17h21"/><path d="M5.5 20.5h21"/><path d="M5.5 24h21"/>
  </g>
  <rect x="14.2" y="17.7" width="3.5" height="2.5" rx="0.5" fill="#0969da"/>
</svg>
